<svg width="1440" height="616" viewBox="0 0 1440 616" version="1.1" xmlns="http://www.w3.org/2000/svg" xmlns:xlink="http://www.w3.org/1999/xlink">
<title>Wireframes</title>
<desc>Created using Figma</desc>
<g id="Canvas" transform="translate(1690 217)">
<g id="Rectangle">
<use xlink:href="#path0_fill" transform="translate(-1690 -217)" fill="#DE2E2E"/>
</g>
<g id="path4186">
<use xlink:href="#path1_fill" transform="translate(-1690 44)" fill="#000000" fill-opacity="0.1"/>
</g>
<g id="Group">
<g id="Group">
<g id="Vector">
<use xlink:href="#path2_fill" transform="translate(-910.278 189.829)" fill="#F2F2F2"/>
</g>
<g id="Vector">
<use xlink:href="#path3_fill" transform="translate(-1116 205.424)" fill="#F2F2F2"/>
</g>
<g id="Vector">
<use xlink:href="#path4_fill" transform="translate(-1024.05 106)" fill="#F2F2F2"/>
</g>
</g>
</g>
</g>
<defs>
<path id="path0_fill" d="M 0 0L 1440 0L 1440 615L 0 615L 0 0Z"/>
<path id="path1_fill" d="M 23.9005 231.709L 61.5895 231.709L 61.5895 277.683L 83.6517 277.683L 83.6517 161.369L 174.657 161.369L 174.657 268.488L 185.229 268.488L 185.229 257.914L 211.427 257.914L 211.427 244.582L 262.905 244.582L 262.905 257.914L 281.75 257.914L 281.75 266.649L 308.407 266.649L 308.407 192.172L 349.774 192.172L 349.774 170.564L 420.096 170.564L 420.096 287.338L 427.45 287.338L 427.45 257.914L 461.003 257.914L 461.003 245.041L 473.872 245.041L 473.872 231.709L 498.692 231.709L 498.692 99.3039L 546.952 99.3039L 546.952 88.2701L 563.039 88.2701L 563.039 102.982L 586.48 102.982L 586.48 122.751L 614.515 122.751L 614.515 110.798L 629.223 110.798L 629.223 118.154L 650.366 118.154L 650.366 77.2363L 734.478 77.2363L 734.478 108.959L 745.509 108.959L 745.509 38.6182L 753.323 38.6182L 753.323 26.665L 762.056 26.665L 762.056 -1.39233e-05L 796.528 -1.39233e-05L 796.528 30.8027L 806.64 30.8027L 806.64 96.0858L 810.776 100.224L 810.776 136.542L 817.671 136.542L 817.671 187.574L 835.596 187.574L 835.596 57.4674L 845.249 57.4674L 845.249 44.5948L 865.931 44.5948L 865.931 54.7089L 895.807 54.7089L 895.807 119.992L 901.783 119.992L 901.783 101.143L 977.162 101.143L 977.162 119.073L 985.894 119.073L 985.894 281.361L 996.006 281.361L 996.006 304.348L 1004.74 304.348L 1004.74 262.512L 1010.71 262.512L 1010.71 229.87L 1017.61 229.87L 1017.61 217.916L 1031.4 217.916L 1031.4 228.031L 1041.51 228.031L 1041.51 286.418L 1055.3 286.418L 1055.3 232.628L 1067.25 232.628L 1067.25 218.836L 1077.36 218.836L 1077.36 228.031L 1109.99 228.031L 1109.99 213.319L 1120.57 213.319L 1120.57 228.031L 1135.73 228.031L 1135.73 275.385L 1165.15 275.385L 1165.15 245.961L 1223.06 245.961L 1223.06 264.351L 1235.47 264.351L 1235.47 251.938L 1273.16 251.938L 1273.16 243.662L 1297.06 243.662L 1297.06 298.371L 1307.17 298.371L 1307.17 287.338L 1317.74 287.338L 1317.74 274.465L 1375.19 274.465L 1375.19 295.153L 1390.36 295.153L 1390.36 311.244L 1405.99 311.244L 1405.99 305.267L 1440 305.267L 1440 354L 2.80768e-06 354L 2.80768e-06 288.257L 23.9005 288.257L 23.9005 231.709Z"/>
<path id="path2_fill" d="M 73.4027 8.65908C 71.5731 8.65908 69.825 9.01505 68.2241 9.66089C 66.4362 4.06397 61.1853 7.60991e-07 55.003 7.60991e-07C 51.477 7.60991e-07 48.254 1.32224 45.8034 3.49667C 43.3528 1.32224 40.1298 7.60991e-07 36.6038 7.60991e-07C 33.0778 7.60991e-07 29.8548 1.32224 27.4042 3.49667C 24.9536 1.32224 21.7306 7.60991e-07 18.2047 7.60991e-07C 10.5835 7.60991e-07 4.38378 6.22406 4.38378 13.8633C 4.34887 27.2365 4.347 33.503 4.36321 36.5078C 1.5928 39.0912 -8.8275e-06 42.7188 -8.8275e-06 46.6481L -8.8275e-06 68.1873C -8.8275e-06 82.798 7.39918 96.4818 19.4814 104.533L 19.4814 203.707C 19.4814 206.289 21.5748 208.382 24.1569 208.382C 26.739 208.382 28.8324 206.289 28.8324 203.707L 28.8324 101.937C 28.8324 100.268 27.9428 98.7254 26.4984 97.8894C 15.923 91.7713 9.35231 80.3898 9.35231 68.188L 9.35231 46.6487C 9.35231 45.0865 10.1104 43.6826 11.3796 42.8597C 11.4314 42.831 11.4844 42.8067 11.5355 42.7755C 12.2368 42.3497 13.0466 42.1247 13.8763 42.1247L 37.4491 42.1247C 39.9434 42.1247 41.9732 44.1545 41.9732 46.6487C 41.9732 49.143 39.944 51.1728 37.4491 51.1728L 23.0759 51.1728C 21.836 51.1728 20.6465 51.6652 19.77 52.5424C 18.8929 53.4195 18.4004 54.6083 18.4004 55.8483L 18.4004 70.3524C 18.4004 72.2214 19.5132 73.9102 21.2294 74.6483L 41.3735 83.3067C 41.9757 83.5655 42.6016 83.6877 43.2175 83.6877C 45.0297 83.6877 46.7541 82.6279 47.5153 80.8574C 48.5351 78.4847 47.4379 75.7349 45.0659 74.715L 27.7515 67.2728L 27.7515 60.5238L 37.4491 60.5238C 43.7094 60.5238 49.012 56.3551 50.7339 50.6485C 52.0798 51.0849 53.5143 51.3236 55.0042 51.3236C 58.5302 51.3236 61.7538 50.0014 64.2038 47.8269C 66.6544 50.0014 69.8774 51.3236 73.4034 51.3236C 74.9874 51.3236 76.5085 51.0531 77.9274 50.5624L 77.9274 69.1611C 77.9274 86.8589 63.5293 101.256 45.8321 101.256C 43.2499 101.256 41.1565 103.35 41.1565 105.932C 41.1565 108.514 43.2499 110.607 45.8321 110.607C 51.8666 110.607 57.5988 109.3 62.7756 106.971L 62.7756 203.706C 62.7756 206.288 64.869 208.382 67.4511 208.382C 70.0332 208.382 72.1266 206.288 72.1266 203.706L 72.1266 101.175C 81.3711 93.5674 87.2778 82.0419 87.2778 69.1617L 87.2778 22.5348C 87.2778 14.8838 81.0538 8.65908 73.4027 8.65908ZM 13.7074 32.7792C 13.7062 27.4385 13.7205 19.5319 13.7355 13.8764C 13.7355 11.3821 15.741 9.35231 18.2053 9.35231C 20.6995 9.35231 22.7293 11.3821 22.7293 13.8764L 22.7293 32.7736L 13.8757 32.7736C 13.8196 32.7736 13.7641 32.7786 13.7074 32.7792ZM 37.4485 32.7736L 32.0804 32.7736L 32.0804 13.8764C 32.0804 11.3821 34.1096 9.35231 36.6044 9.35231C 39.0993 9.35231 41.1285 11.3821 41.1285 13.8764L 41.1285 33.273C 39.9558 32.9494 38.7228 32.7736 37.4485 32.7736ZM 55.0036 41.9732C 52.5093 41.9732 50.4795 39.9434 50.4795 37.4491L 50.4795 13.8764C 50.4795 11.3821 52.5087 9.35231 55.0036 9.35231C 57.4984 9.35231 59.5276 11.3821 59.5276 13.8764L 59.5276 22.5348C 59.5276 22.541 59.5276 37.4491 59.5276 37.4491C 59.5276 39.9434 57.4978 41.9732 55.0036 41.9732ZM 73.4027 41.9732C 70.9085 41.9732 68.8787 39.9434 68.8787 37.4491L 68.8787 22.5292C 68.8818 20.0375 70.9104 18.0108 73.4027 18.0108C 75.897 18.0108 77.9268 20.0406 77.9268 22.5348L 77.9268 37.4491C 77.9268 39.9434 75.8976 41.9732 73.4027 41.9732Z"/>
<path id="path3_fill" d="M 78.3494 9.28186C 76.3028 9.28186 74.3534 9.70703 72.5848 10.4738C 70.8225 4.42928 65.2318 3.80496e-07 58.6256 3.80496e-07C 54.8228 3.80496e-07 51.3567 1.4675 48.7639 3.86573C 46.1706 1.4675 42.7044 3.80496e-07 38.9023 3.80496e-07C 35.1002 3.80496e-07 31.6334 1.4675 29.0407 3.86573C 26.4473 1.4675 22.9812 3.80496e-07 19.1784 3.80496e-07C 11.1945 3.80496e-07 4.69922 6.52143 4.69922 14.5253C 4.66119 29.1011 4.65995 35.7984 4.67803 38.9459C 1.70937 41.6584 0 45.5017 0 49.6691L 0 72.7594C 0 88.3701 7.93531 102.986 20.884 111.541L 20.884 188.901C 20.884 191.483 22.9774 193.576 25.5596 193.576C 28.1417 193.576 30.2351 191.483 30.2351 188.901L 30.2351 108.939C 30.2351 107.27 29.3455 105.728 27.9011 104.892C 16.4591 98.2728 9.35106 85.96 9.35106 72.7594L 9.35106 49.6691C 9.35106 47.8756 10.2245 46.2635 11.6863 45.3196C 11.7418 45.2891 11.7985 45.2629 11.8534 45.2292C 12.6582 44.7405 13.5865 44.4824 14.5378 44.4824L 39.8075 44.4824C 42.667 44.4824 44.9936 46.8089 44.9936 49.6691C 44.9936 52.5293 42.667 54.8558 39.8075 54.8558L 24.3994 54.8558C 23.1595 54.8558 21.97 55.3483 21.0935 56.2255C 20.2164 57.1026 19.7239 58.2914 19.7239 59.5314L 19.7239 75.0797C 19.7239 76.9487 20.8367 78.6375 22.5529 79.3756L 44.147 88.6575C 44.7492 88.9162 45.3751 89.0383 45.991 89.0383C 47.8033 89.0383 49.5276 87.9786 50.2888 86.2081C 51.3087 83.8354 50.2115 81.0856 47.8394 80.0657L 29.0749 72.0001L 29.0749 64.2069L 39.8069 64.2069C 46.4879 64.2069 52.1272 59.6748 53.821 53.5249C 55.3259 54.0535 56.9424 54.3446 58.6256 54.3446C 62.4283 54.3446 65.8944 52.8772 68.4872 50.4789C 71.0806 52.8772 74.5467 54.3446 78.3494 54.3446C 80.176 54.3446 81.924 54.0024 83.5355 53.3846L 83.5355 73.803C 83.5355 92.9602 67.9498 108.546 48.7926 108.546C 46.2105 108.546 44.1171 110.639 44.1171 113.221C 44.1171 115.804 46.2105 117.897 48.7926 117.897C 55.3976 117.897 61.6622 116.428 67.2927 113.814L 67.2927 188.901C 67.2927 191.483 69.3861 193.576 71.9683 193.576C 74.5504 193.576 76.6438 191.483 76.6438 188.901L 76.6438 107.958C 86.5497 99.8656 92.8872 87.5621 92.8872 73.8036L 92.8872 23.8197C 92.8872 15.8033 86.3658 9.28186 78.3494 9.28186ZM 14.0191 35.1494C 14.0172 29.5039 14.0328 20.9377 14.0497 14.5378C 14.0497 11.6782 16.35 9.35107 19.1778 9.35107C 22.0367 9.35107 24.3626 11.6764 24.3645 14.5347C 24.3645 14.5378 24.3645 35.1319 24.3645 35.1319L 14.5372 35.1319C 14.3639 35.1313 14.1918 35.1432 14.0191 35.1494ZM 39.8069 35.1313L 33.7156 35.1313L 33.7156 14.5434C 33.7156 11.6776 36.0421 9.35044 38.9023 9.35044C 41.7625 9.35044 44.0884 11.677 44.0884 14.5372L 44.0884 35.7759C 42.7344 35.3576 41.2968 35.1313 39.8069 35.1313ZM 58.6262 44.9936C 55.7666 44.9936 53.4401 42.667 53.4401 39.8075L 53.4401 14.5372C 53.4401 11.6776 55.7666 9.35044 58.6262 9.35044C 61.4857 9.35044 63.8123 11.677 63.8123 14.5372L 63.8123 39.8075C 63.8123 42.667 61.4857 44.9936 58.6262 44.9936ZM 78.3501 44.9936C 75.4905 44.9936 73.1633 42.667 73.1633 39.8075L 73.1633 23.8197C 73.1633 20.9601 75.4899 18.6329 78.3494 18.6329C 81.209 18.6329 83.5362 20.9595 83.5362 23.8197L 83.5362 39.8075C 83.5362 42.667 81.2096 44.9936 78.3501 44.9936Z"/>
<path id="path4_fill" d="M 109.09 46.6157L 109.09 27.5326C 109.09 18.4621 101.711 11.0823 92.6397 11.0823C 89.9448 11.0823 87.3994 11.7337 85.152 12.8876C 83.52 5.52336 76.9381 0 69.0906 0C 64.4799 0 60.3063 1.90699 57.3164 4.97352C 54.3259 1.90699 50.1529 0 45.5416 0C 40.9302 0 36.7565 1.90699 33.7667 4.97352C 30.7768 1.90699 26.6032 0 21.9918 0C 12.9593 0 5.61064 7.37986 5.61064 16.4385C 5.56326 34.5734 5.56513 42.4744 5.58695 45.9985C 2.04726 49.0794 -1.36978e-06 53.5436 -1.36978e-06 58.3968L -1.36978e-06 85.965C -1.36978e-06 104.461 9.48821 121.77 24.9349 131.778L 24.9349 288.324C 24.9349 290.907 27.0283 293 29.6105 293C 32.1926 293 34.286 290.907 34.286 288.324L 34.286 129.161C 34.286 127.492 33.3964 125.95 31.952 125.114C 18.0114 117.049 9.35169 102.048 9.35169 85.9643L 9.35169 58.3968C 9.35169 55.9368 10.5567 53.7231 12.5734 52.4295C 12.6408 52.3934 12.7087 52.361 12.7748 52.3204C 13.8782 51.6509 15.1487 51.2968 16.4504 51.2968L 46.6213 51.2968C 50.5356 51.2968 53.7206 54.4818 53.7206 58.3961C 53.7206 62.3105 50.5363 65.4955 46.6213 65.4955L 28.2252 65.4955C 26.9853 65.4955 25.7958 65.988 24.9193 66.8651C 24.0422 67.7422 23.5497 68.9311 23.5497 70.171L 23.5497 88.7347C 23.5497 90.6037 24.6625 92.2925 26.3787 93.0306L 52.1609 104.113C 52.7631 104.372 53.389 104.494 54.0049 104.494C 55.8171 104.494 57.5415 103.434 58.3026 101.664C 59.3225 99.2908 58.2253 96.5416 55.8533 95.5211L 32.9014 85.6557L 32.9014 74.8472L 46.6219 74.8472C 54.5304 74.8472 61.1516 69.2365 62.7188 61.7875C 64.6794 62.6147 66.8327 63.0723 69.0906 63.0723C 73.702 63.0723 77.8757 61.1653 80.8655 58.0988C 83.8553 61.1653 88.029 63.0723 92.6404 63.0723C 95.1814 63.0723 97.5889 62.4925 99.7391 61.4596L 99.7391 87.2118C 99.7391 110.585 80.724 129.6 57.3507 129.6C 54.7686 129.6 52.6752 131.694 52.6752 134.276C 52.6752 136.858 54.7686 138.951 57.3507 138.951C 65.6077 138.951 73.4133 136.997 80.3456 133.542L 80.3456 288.324C 80.3456 290.907 82.439 293 85.0211 293C 87.6032 293 89.6966 290.907 89.6966 288.324L 89.6966 127.551C 101.509 118.06 109.09 103.508 109.09 87.2118C 109.09 87.2118 109.09 46.6338 109.09 46.6157ZM 14.9262 42.0256C 14.9218 35.3258 14.9411 24.4749 14.9617 16.4504C 14.9617 12.536 18.1155 9.35106 21.9918 9.35106C 25.9062 9.35106 29.0912 12.536 29.0912 16.4504L 29.0912 41.9458L 16.451 41.9458C 15.9398 41.9464 15.4318 41.9788 14.9262 42.0256ZM 46.6219 41.9464L 38.4422 41.9464L 38.4422 16.4504C 38.4422 12.536 41.6266 9.35106 45.5416 9.35106C 49.4565 9.35106 52.6409 12.536 52.6409 16.4504L 52.6409 43.0916C 50.775 42.3553 48.7458 41.9464 46.6219 41.9464ZM 69.0906 53.7212C 65.1763 53.7212 61.9913 50.5363 61.9913 46.6219L 61.9913 16.4504C 61.9913 12.536 65.1757 9.35106 69.09 9.35106C 73.0044 9.35106 76.1893 12.536 76.1893 16.4504L 76.1893 27.5326C 76.1893 27.5389 76.1893 46.6219 76.1893 46.6219C 76.19 50.5363 73.005 53.7212 69.0906 53.7212ZM 92.6397 53.7212C 88.7254 53.7212 85.5404 50.5363 85.5404 46.6219L 85.5404 27.527C 85.5435 23.6152 88.7266 20.4333 92.6391 20.4333C 96.5535 20.4333 99.7384 23.6183 99.7384 27.5326L 99.7384 46.6275C 99.7353 50.5394 96.5522 53.7212 92.6397 53.7212Z"/>
</defs>
</svg>
